<svg width="33" height="33" viewBox="0 0 33 33" fill="none" xmlns="http://www.w3.org/2000/svg">
<g clip-path="url(#clip0_157_6887)">
<path fill-rule="evenodd" clip-rule="evenodd" d="M16.5 10.501C12.081 10.501 8.5 14.082 8.5 18.501C8.5 22.919 12.081 26.501 16.5 26.501C20.918 26.501 24.5 22.919 24.5 18.501C24.5 14.083 20.918 10.501 16.5 10.501ZM21.055 22.406C18.899 24.922 15.112 25.213 12.596 23.056C10.079 20.9 9.789 17.112 11.946 14.597C14.101 12.08 17.889 11.79 20.405 13.947C22.92 16.102 23.211 19.891 21.055 22.406Z" fill="white"/>
<path fill-rule="evenodd" clip-rule="evenodd" d="M16.5 14.501C14.291 14.501 12.501 16.292 12.5 18.5V18.502C12.5 18.777 12.724 19.002 13 19.002C13.276 19.002 13.5 18.777 13.5 18.502V18.5C13.501 16.844 14.843 15.501 16.5 15.501C16.776 15.501 17 15.277 17 15.001C17 14.725 16.776 14.501 16.5 14.501Z" fill="white"/>
<path fill-rule="evenodd" clip-rule="evenodd" d="M29.992 9.542L25.658 8.819L24.285 5.385C23.826 4.24 22.732 3.5 21.5 3.5H11.5C10.268 3.5 9.174 4.24 8.714 5.386L7.342 8.819L3.009 9.542C1.555 9.783 0.5 11.027 0.5 12.5V27.5C0.5 29.154 1.846 30.5 3.5 30.5H29.5C31.154 30.5 32.5 29.154 32.5 27.5V12.5C32.5 11.027 31.445 9.783 29.992 9.542ZM30.5 27.5C30.5 28.053 30.053 28.5 29.5 28.5H3.5C2.947 28.5 2.5 28.053 2.5 27.5V12.5C2.5 12.011 2.854 11.594 3.336 11.514L8.78 10.607L10.571 6.129C10.724 5.75 11.091 5.5 11.5 5.5H21.5C21.908 5.5 22.275 5.749 22.428 6.129L24.219 10.607L29.664 11.514C30.146 11.594 30.5 12.011 30.5 12.5V27.5Z" fill="white"/>
</g>
<defs>
<clipPath id="clip0_157_6887">
<rect width="32" height="32" fill="white" transform="translate(0.5 0.5)"/>
</clipPath>
</defs>
</svg>
