<svg width="32" height="27" viewBox="0 0 32 27" fill="none" xmlns="http://www.w3.org/2000/svg">
<path fill-rule="evenodd" clip-rule="evenodd" d="M16 7.00098C11.581 7.00098 8 10.582 8 15.001C8 19.419 11.581 23.001 16 23.001C20.418 23.001 24 19.419 24 15.001C24 10.583 20.418 7.00098 16 7.00098ZM20.555 18.906C18.399 21.422 14.612 21.713 12.096 19.556C9.579 17.4 9.289 13.612 11.446 11.097C13.601 8.57998 17.389 8.28998 19.905 10.447C22.42 12.602 22.711 16.391 20.555 18.906Z" fill="white"/>
<path fill-rule="evenodd" clip-rule="evenodd" d="M16 11.001C13.791 11.001 12.001 12.792 12 15V15.002C12 15.277 12.224 15.502 12.5 15.502C12.776 15.502 13 15.277 13 15.002V15C13.001 13.344 14.343 12.001 16 12.001C16.276 12.001 16.5 11.777 16.5 11.501C16.5 11.225 16.276 11.001 16 11.001Z" fill="white"/>
<path fill-rule="evenodd" clip-rule="evenodd" d="M29.492 6.042L25.158 5.319L23.785 1.885C23.326 0.74 22.232 0 21 0H11C9.768 0 8.674 0.74 8.214 1.886L6.842 5.319L2.509 6.042C1.055 6.283 0 7.527 0 9V24C0 25.654 1.346 27 3 27H29C30.654 27 32 25.654 32 24V9C32 7.527 30.945 6.283 29.492 6.042ZM30 24C30 24.553 29.553 25 29 25H3C2.447 25 2 24.553 2 24V9C2 8.511 2.354 8.094 2.836 8.014L8.28 7.107L10.071 2.629C10.224 2.25 10.591 2 11 2H21C21.408 2 21.775 2.249 21.928 2.629L23.719 7.107L29.164 8.014C29.646 8.094 30 8.511 30 9V24Z" fill="white"/>
</svg>
