<svg width="33" height="28" viewBox="0 0 33 28" fill="none" xmlns="http://www.w3.org/2000/svg">
<path fill-rule="evenodd" clip-rule="evenodd" d="M16.499 7.07562C12.08 7.07562 8.49902 10.6566 8.49902 15.0756C8.49902 19.4936 12.08 23.0756 16.499 23.0756C20.917 23.0756 24.499 19.4936 24.499 15.0756C24.499 10.6576 20.917 7.07562 16.499 7.07562ZM21.054 18.9806C18.898 21.4966 15.111 21.7876 12.595 19.6306C10.078 17.4746 9.78802 13.6866 11.945 11.1716C14.1 8.65462 17.888 8.36462 20.404 10.5216C22.919 12.6766 23.21 16.4656 21.054 18.9806Z" fill="#A4A1AA"/>
<path fill-rule="evenodd" clip-rule="evenodd" d="M16.499 11.0756C14.29 11.0756 12.5 12.8666 12.499 15.0746V15.0766C12.499 15.3516 12.723 15.5766 12.999 15.5766C13.275 15.5766 13.499 15.3516 13.499 15.0766V15.0746C13.5 13.4186 14.842 12.0756 16.499 12.0756C16.775 12.0756 16.999 11.8516 16.999 11.5756C16.999 11.2996 16.775 11.0756 16.499 11.0756Z" fill="#A4A1AA"/>
<path fill-rule="evenodd" clip-rule="evenodd" d="M29.991 6.11665L25.657 5.39365L24.284 1.95965C23.825 0.814646 22.731 0.074646 21.499 0.074646H11.499C10.267 0.074646 9.17302 0.814646 8.71302 1.96065L7.34102 5.39365L3.00802 6.11665C1.55402 6.35765 0.499023 7.60165 0.499023 9.07465V24.0746C0.499023 25.7286 1.84502 27.0746 3.49902 27.0746H29.499C31.153 27.0746 32.499 25.7286 32.499 24.0746V9.07465C32.499 7.60165 31.444 6.35765 29.991 6.11665ZM30.499 24.0746C30.499 24.6276 30.052 25.0746 29.499 25.0746H3.49902C2.94602 25.0746 2.49902 24.6276 2.49902 24.0746V9.07465C2.49902 8.58565 2.85302 8.16865 3.33502 8.08865L8.77902 7.18165L10.57 2.70365C10.723 2.32465 11.09 2.07465 11.499 2.07465H21.499C21.907 2.07465 22.274 2.32365 22.427 2.70365L24.218 7.18165L29.663 8.08865C30.145 8.16865 30.499 8.58565 30.499 9.07465V24.0746Z" fill="#A4A1AA"/>
</svg>
