<svg width="24" height="24" viewBox="0 0 24 24" fill="none" xmlns="http://www.w3.org/2000/svg">
<g id="Iconly/Curved/Light/Hide">
<g id="Hide">
<path id="Stroke 1" d="M6.42 17.7299C4.19 16.2699 2.75 14.0699 2.75 12.1399C2.75 8.85991 6.89 4.8399 12 4.8399C14.09 4.8399 16.03 5.5099 17.59 6.5499" stroke="black" stroke-width="1.5" stroke-linecap="round" stroke-linejoin="round"/>
<path id="Stroke 3" d="M19.8496 8.61029C20.7406 9.74029 21.2596 10.9903 21.2596 12.1403C21.2596 15.4203 17.1096 19.4403 11.9996 19.4403C11.0896 19.4403 10.2006 19.3103 9.36963 19.0803" stroke="black" stroke-width="1.5" stroke-linecap="round" stroke-linejoin="round"/>
<path id="Stroke 5" d="M9.7656 14.3671C9.1706 13.7781 8.8376 12.9751 8.8406 12.1381C8.8366 10.3931 10.2486 8.97512 11.9946 8.97212C12.8346 8.97012 13.6406 9.30312 14.2346 9.89712" stroke="black" stroke-width="1.5" stroke-linecap="round" stroke-linejoin="round"/>
<path id="Stroke 7" d="M15.1095 12.6992C14.8755 13.9912 13.8645 15.0042 12.5725 15.2412" stroke="black" stroke-width="1.5" stroke-linecap="round" stroke-linejoin="round"/>
<path id="Stroke 9" d="M19.8917 4.25L4.11768 20.024" stroke="black" stroke-width="1.5" stroke-linecap="round" stroke-linejoin="round"/>
</g>
</g>
</svg>
