<svg width="16" height="16" viewBox="0 0 16 16" fill="none" xmlns="http://www.w3.org/2000/svg">
<g clip-path="url(#clip0_181_6159)">
<path d="M12.2005 3.80665C11.9405 3.54665 11.5205 3.54665 11.2605 3.80665L8.00047 7.05998L4.74047 3.79998C4.48047 3.53998 4.06047 3.53998 3.80047 3.79998C3.54047 4.05998 3.54047 4.47998 3.80047 4.73998L7.06047 7.99998L3.80047 11.26C3.54047 11.52 3.54047 11.94 3.80047 12.2C4.06047 12.46 4.48047 12.46 4.74047 12.2L8.00047 8.93998L11.2605 12.2C11.5205 12.46 11.9405 12.46 12.2005 12.2C12.4605 11.94 12.4605 11.52 12.2005 11.26L8.94047 7.99998L12.2005 4.73998C12.4538 4.48665 12.4538 4.05998 12.2005 3.80665Z" fill="#EA3C12"/>
</g>
<defs>
<clipPath id="clip0_181_6159">
<rect width="16" height="16" fill="white"/>
</clipPath>
</defs>
</svg>
