<svg width="20" height="20" viewBox="0 0 20 20" fill="none" xmlns="http://www.w3.org/2000/svg">
<path d="M15.6423 2.3595C14.8827 1.59292 13.9954 0.99871 13.0035 0.592131C10.0185 -0.626815 6.61852 0.0713425 4.3428 2.36266C2.83323 3.88686 2 5.82739 2 7.83396C2 9.83738 2.83271 11.78 4.3428 13.3026L5.17342 14.1324C6.8404 15.7929 8.27793 17.2266 9.51132 19.2195L9.99111 20L10.474 19.2195C11.7074 17.2266 13.1449 15.7929 14.8091 14.1342L15.642 13.3C18.7859 10.1305 18.7859 5.52923 15.6423 2.3595ZM12.4738 10.695C11.1034 12.0787 8.88196 12.0787 7.51126 10.695C6.14108 9.31607 6.14108 7.0766 7.51126 5.69502C8.88196 4.31607 11.1034 4.31607 12.4738 5.69502C13.8411 7.0766 13.8411 9.31554 12.4738 10.695Z" fill="#FF8D72"/>
</svg>
