<svg width="112" height="40" viewBox="0 0 112 40" fill="none" xmlns="http://www.w3.org/2000/svg">
<path d="M5.06982 24.2214V18.8938H0V16.7026H5.06982V11.332H7.3899V16.7026L12.3523 16.7026V18.8938L7.3899 18.8938V24.2214H5.06982Z" fill="#FF8D72"/>
<path d="M14.0508 25.2954V10.2578H16.6072V16.5092H23.8682V10.2578H26.4246V25.2954H23.8682V18.7863H16.6072V25.2954H14.0508Z" fill="#EA3C12"/>
<path d="M33.2916 25.2954C32.461 25.2954 31.7162 25.1021 31.0574 24.7154C30.3987 24.3144 29.8759 23.7845 29.4892 23.1257C29.1168 22.4525 28.9307 21.7151 28.9307 20.913C28.9307 20.2829 29.0738 19.6885 29.3603 19.13C29.6611 18.5571 30.0764 18.0774 30.6063 17.6907C30.0764 17.304 29.6683 16.8386 29.3818 16.2943C29.0953 15.7358 28.9521 15.1558 28.9521 14.5543C28.9521 13.7523 29.1383 13.029 29.5107 12.3846C29.8974 11.7401 30.4129 11.2245 31.0574 10.8378C31.7019 10.4512 32.418 10.2578 33.2056 10.2578H39.2636V12.5349H33.4849C33.1268 12.5349 32.7975 12.628 32.4967 12.8142C32.196 12.9861 31.9525 13.2224 31.7663 13.5231C31.5945 13.8239 31.5085 14.1676 31.5085 14.5543C31.5085 14.898 31.6017 15.2202 31.7878 15.521C31.974 15.8217 32.2175 16.0652 32.5182 16.2514C32.819 16.4232 33.1555 16.5092 33.5279 16.5092H38.5118V18.7863H33.6568C33.2271 18.7863 32.8476 18.8865 32.5182 19.087C32.1888 19.2875 31.931 19.5525 31.7448 19.8819C31.573 20.1969 31.4871 20.5478 31.4871 20.9345C31.4871 21.3069 31.573 21.6577 31.7448 21.9871C31.931 22.3022 32.1817 22.56 32.4967 22.7605C32.8262 22.9466 33.1984 23.0398 33.6138 23.0398H39.2636V25.2954H33.2916Z" fill="#EA3C12"/>
<path d="M49.7262 29.9785C48.9671 29.9785 48.3012 29.8354 47.7283 29.5489C47.1555 29.2768 46.7187 28.8687 46.4179 28.3244C46.1172 27.7945 45.9668 27.1572 45.9668 26.4125C45.9668 25.7393 46.0957 24.9947 46.3535 24.1783C46.6256 23.362 47.1126 22.5242 47.8143 21.6649C48.516 20.8056 49.5114 19.9821 50.8003 19.1944V12.5135H47.6854V10.2578H53.3567V26.0258C53.3567 26.7849 53.2135 27.4651 52.9271 28.0666C52.655 28.6681 52.2468 29.1335 51.7026 29.463C51.1727 29.8067 50.5138 29.9785 49.7262 29.9785ZM49.5543 27.6799C49.7978 27.6799 50.0127 27.6155 50.1988 27.4866C50.3849 27.3577 50.5282 27.1716 50.6285 26.9281C50.7287 26.699 50.7788 26.4197 50.7788 26.0903V21.8153C49.9912 22.4455 49.4254 23.047 49.0817 23.6198C48.738 24.1926 48.5304 24.7011 48.4587 25.145C48.3871 25.5747 48.3513 25.9041 48.3513 26.1332C48.3513 26.6345 48.473 27.014 48.7165 27.2718C48.96 27.5438 49.2393 27.6799 49.5543 27.6799Z" fill="#EA3C12"/>
<path d="M62.5053 25.5532C61.3165 25.5532 60.2639 25.3097 59.3474 24.8228C58.4308 24.3215 57.7075 23.6126 57.1777 22.6961C56.6621 21.7795 56.4043 20.6839 56.4043 19.4093V10.2578H58.9607V19.6241C58.9607 20.2829 59.1039 20.8915 59.3903 21.4501C59.6911 22.0086 60.1064 22.4597 60.6363 22.8035C61.1662 23.1329 61.7963 23.2976 62.5267 23.2976C63.2571 23.2976 63.8801 23.1329 64.3957 22.8035C64.9256 22.4597 65.3337 22.0086 65.6202 21.4501C65.9067 20.8915 66.0498 20.2829 66.0498 19.6241V10.2578H68.6277V19.4093C68.6277 20.6839 68.3628 21.7795 67.8329 22.6961C67.303 23.6126 66.5797 24.3215 65.6632 24.8228C64.7466 25.3097 63.694 25.5532 62.5053 25.5532Z" fill="#EA3C12"/>
<path d="M75.6968 25.2954C74.8519 25.2954 74.1072 25.1093 73.4627 24.7369C72.8326 24.3502 72.3385 23.8346 71.9804 23.1901C71.6367 22.5457 71.4648 21.8296 71.4648 21.0419V10.2578H74.0427V21.3642C74.0427 21.8225 74.1931 22.2162 74.4938 22.5457C74.809 22.8751 75.21 23.0398 75.6968 23.0398H79.6926V25.2954H75.6968Z" fill="#EA3C12"/>
<path d="M92.7039 30C91.9306 30 91.2503 29.8568 90.6631 29.5704C90.0903 29.2839 89.6463 28.8614 89.3312 28.3029C89.0305 27.7586 88.8801 27.1071 88.8801 26.348C88.8801 26.1619 88.8873 25.9685 88.9016 25.768C88.9159 25.5818 88.9373 25.3885 88.966 25.188C87.7917 25.2309 86.7176 25.0663 85.7437 24.6939C84.7698 24.3215 83.9249 23.7916 83.2088 23.1042C82.507 22.4168 81.9628 21.6076 81.5761 20.6767C81.1894 19.7315 80.9961 18.7075 80.9961 17.6047C80.9961 16.5593 81.1751 15.5782 81.5332 14.6617C81.8912 13.7451 82.4067 12.9359 83.0799 12.2342C83.753 11.5324 84.5621 10.9882 85.5074 10.6015C86.4526 10.2005 87.5052 10 88.6653 10C89.8396 10 90.8994 10.1933 91.8446 10.58C92.7899 10.9524 93.599 11.4823 94.2721 12.1697C94.9453 12.8571 95.4609 13.652 95.8189 14.5542C96.1769 15.4422 96.3559 16.4017 96.3559 17.4329V26.0258C96.3559 26.7849 96.2127 27.4651 95.9263 28.0666C95.6542 28.6681 95.246 29.1407 94.7018 29.4844C94.1575 29.8281 93.4916 30 92.7039 30ZM92.5321 27.7014C92.9188 27.7014 93.2195 27.5582 93.4343 27.2718C93.6634 26.9853 93.7781 26.5915 93.7781 26.0902V21.6219C93.1765 22.0802 92.7039 22.5314 92.3602 22.9753C92.0165 23.4192 91.7659 23.8418 91.6083 24.2428C91.4652 24.6437 91.372 25.0018 91.3291 25.3169C91.3004 25.6319 91.2861 25.8826 91.2861 26.0687C91.2861 26.4125 91.3434 26.706 91.458 26.9495C91.5726 27.193 91.7229 27.3792 91.9091 27.5081C92.1096 27.6369 92.3173 27.7014 92.5321 27.7014ZM88.6653 22.9538C88.8944 22.9538 89.1021 22.9466 89.2883 22.9323C89.4744 22.9037 89.6749 22.8679 89.8898 22.8249C90.1189 22.3953 90.4053 21.9584 90.749 21.5145C91.0928 21.0706 91.5152 20.6409 92.0165 20.2256C92.5178 19.7959 93.1049 19.3878 93.7781 19.0011V17.4329C93.7781 16.7025 93.6492 16.0222 93.3914 15.3921C93.1479 14.7619 92.7899 14.2177 92.3173 13.7594C91.8589 13.2868 91.3219 12.9216 90.7061 12.6638C90.0903 12.3917 89.4099 12.2556 88.6653 12.2556C87.9349 12.2556 87.2546 12.3917 86.6244 12.6638C86.0087 12.9359 85.4716 13.3154 85.0133 13.8024C84.555 14.275 84.197 14.8407 83.9392 15.4995C83.6814 16.1439 83.5525 16.8457 83.5525 17.6047C83.5525 18.3638 83.6814 19.0727 83.9392 19.7315C84.197 20.3759 84.555 20.9417 85.0133 21.4286C85.4716 21.9012 86.0087 22.2736 86.6244 22.5457C87.2546 22.8177 87.9349 22.9538 88.6653 22.9538Z" fill="#EA3C12"/>
<path d="M102.878 25.2954C102.048 25.2954 101.303 25.1021 100.644 24.7154C99.9856 24.3144 99.4629 23.7845 99.0762 23.1257C98.7038 22.4525 98.5176 21.7151 98.5176 20.913C98.5176 20.2829 98.6609 19.6885 98.9472 19.13C99.248 18.5571 99.6633 18.0774 100.193 17.6907C99.6633 17.304 99.2552 16.8386 98.9687 16.2943C98.6823 15.7358 98.5392 15.1558 98.5392 14.5543C98.5392 13.7523 98.7253 13.029 99.0976 12.3846C99.4843 11.7401 99.9999 11.2245 100.644 10.8378C101.289 10.4512 102.005 10.2578 102.793 10.2578H108.851V12.5349H103.072C102.714 12.5349 102.384 12.628 102.084 12.8142C101.783 12.9861 101.539 13.2224 101.353 13.5231C101.181 13.8239 101.095 14.1676 101.095 14.5543C101.095 14.898 101.189 15.2202 101.375 15.521C101.561 15.8217 101.804 16.0652 102.105 16.2514C102.406 16.4232 102.742 16.5092 103.115 16.5092H108.099V18.7863H103.244C102.814 18.7863 102.435 18.8865 102.105 19.087C101.776 19.2875 101.518 19.5525 101.332 19.8819C101.16 20.1969 101.074 20.5478 101.074 20.9345C101.074 21.3069 101.16 21.6577 101.332 21.9871C101.518 22.3022 101.769 22.56 102.084 22.7605C102.413 22.9466 102.785 23.0398 103.201 23.0398H108.851V25.2954H102.878Z" fill="#EA3C12"/>
</svg>
