<svg width="109" height="20" viewBox="0 0 109 20" fill="none" xmlns="http://www.w3.org/2000/svg">
<path d="M5.06982 14.2212V8.89356H0V6.70237H5.06982V1.33179H7.3899V6.70237L12.3523 6.70236V8.89355L7.3899 8.89356V14.2212H5.06982Z" fill="white"/>
<path d="M14.0508 15.2954V0.257812H16.6072V6.50916H23.8682V0.257812H26.4246V15.2954H23.8682V8.78628H16.6072V15.2954H14.0508Z" fill="white"/>
<path d="M33.2916 15.2954C32.461 15.2954 31.7162 15.1021 31.0574 14.7154C30.3987 14.3144 29.8759 13.7845 29.4892 13.1257C29.1168 12.4525 28.9307 11.7151 28.9307 10.913C28.9307 10.2829 29.0738 9.68853 29.3603 9.12999C29.6611 8.55714 30.0764 8.07736 30.6063 7.69068C30.0764 7.304 29.6683 6.83855 29.3818 6.29433C29.0953 5.73579 28.9521 5.15577 28.9521 4.55427C28.9521 3.75226 29.1383 3.02903 29.5107 2.38456C29.8974 1.74009 30.4129 1.22452 31.0574 0.837834C31.7019 0.451153 32.418 0.257812 33.2056 0.257812H39.2636V2.53493H33.4849C33.1268 2.53493 32.7975 2.62803 32.4967 2.8142C32.196 2.98606 31.9525 3.22237 31.7663 3.52312C31.5945 3.82387 31.5085 4.16759 31.5085 4.55427C31.5085 4.89798 31.6017 5.22022 31.7878 5.52097C31.974 5.82172 32.2175 6.06519 32.5182 6.25137C32.819 6.42323 33.1555 6.50916 33.5279 6.50916H38.5118V8.78628H33.6568C33.2271 8.78628 32.8476 8.88652 32.5182 9.08703C32.1888 9.28753 31.931 9.55247 31.7448 9.88187C31.573 10.1969 31.4871 10.5478 31.4871 10.9345C31.4871 11.3069 31.573 11.6577 31.7448 11.9871C31.931 12.3022 32.1817 12.56 32.4967 12.7605C32.8262 12.9466 33.1984 13.0398 33.6138 13.0398H39.2636V15.2954H33.2916Z" fill="white"/>
<path d="M49.7262 19.9785C48.9671 19.9785 48.3012 19.8354 47.7283 19.5489C47.1555 19.2768 46.7187 18.8687 46.4179 18.3244C46.1172 17.7945 45.9668 17.1572 45.9668 16.4125C45.9668 15.7393 46.0957 14.9947 46.3535 14.1783C46.6256 13.362 47.1126 12.5242 47.8143 11.6649C48.516 10.8056 49.5114 9.98212 50.8003 9.19444V2.51345H47.6854V0.257812H53.3567V16.0258C53.3567 16.7849 53.2135 17.4651 52.9271 18.0666C52.655 18.6681 52.2468 19.1335 51.7026 19.463C51.1727 19.8067 50.5138 19.9785 49.7262 19.9785ZM49.5543 17.6799C49.7978 17.6799 50.0127 17.6155 50.1988 17.4866C50.3849 17.3577 50.5282 17.1716 50.6285 16.9281C50.7287 16.699 50.7788 16.4197 50.7788 16.0903V11.8153C49.9912 12.4455 49.4254 13.047 49.0817 13.6198C48.738 14.1926 48.5304 14.7011 48.4587 15.145C48.3871 15.5747 48.3513 15.9041 48.3513 16.1332C48.3513 16.6345 48.473 17.014 48.7165 17.2718C48.96 17.5438 49.2393 17.6799 49.5543 17.6799Z" fill="white"/>
<path d="M62.5053 15.5532C61.3165 15.5532 60.2639 15.3097 59.3474 14.8228C58.4308 14.3215 57.7075 13.6126 57.1777 12.6961C56.6621 11.7795 56.4043 10.6839 56.4043 9.40926V0.257812H58.9607V9.62409C58.9607 10.2829 59.1039 10.8915 59.3903 11.4501C59.6911 12.0086 60.1064 12.4597 60.6363 12.8035C61.1662 13.1329 61.7963 13.2976 62.5267 13.2976C63.2571 13.2976 63.8801 13.1329 64.3957 12.8035C64.9256 12.4597 65.3337 12.0086 65.6202 11.4501C65.9067 10.8915 66.0498 10.2829 66.0498 9.62409V0.257812H68.6277V9.40926C68.6277 10.6839 68.3628 11.7795 67.8329 12.6961C67.303 13.6126 66.5797 14.3215 65.6632 14.8228C64.7466 15.3097 63.694 15.5532 62.5053 15.5532Z" fill="white"/>
<path d="M75.6968 15.2954C74.8519 15.2954 74.1072 15.1093 73.4627 14.7369C72.8326 14.3502 72.3385 13.8346 71.9804 13.1901C71.6367 12.5457 71.4648 11.8296 71.4648 11.0419V0.257812H74.0427V11.3642C74.0427 11.8225 74.1931 12.2162 74.4938 12.5457C74.809 12.8751 75.21 13.0398 75.6968 13.0398H79.6926V15.2954H75.6968Z" fill="white"/>
<path d="M92.7039 20C91.9306 20 91.2503 19.8568 90.6631 19.5704C90.0903 19.2839 89.6463 18.8614 89.3312 18.3029C89.0305 17.7586 88.8801 17.1071 88.8801 16.348C88.8801 16.1619 88.8873 15.9685 88.9016 15.768C88.9159 15.5818 88.9373 15.3885 88.966 15.188C87.7917 15.2309 86.7176 15.0663 85.7437 14.6939C84.7698 14.3215 83.9249 13.7916 83.2088 13.1042C82.507 12.4168 81.9628 11.6076 81.5761 10.6767C81.1894 9.73147 80.9961 8.70749 80.9961 7.60473C80.9961 6.55926 81.1751 5.57823 81.5332 4.66165C81.8912 3.74508 82.4067 2.93591 83.0799 2.23416C83.753 1.53241 84.5621 0.988185 85.5074 0.601504C86.4526 0.200502 87.5052 0 88.6653 0C89.8396 0 90.8994 0.19334 91.8446 0.58002C92.7899 0.95238 93.599 1.48228 94.2721 2.16971C94.9453 2.85714 95.4609 3.65199 95.8189 4.55424C96.1769 5.44218 96.3559 6.40172 96.3559 7.43287V16.0258C96.3559 16.7849 96.2127 17.4651 95.9263 18.0666C95.6542 18.6681 95.246 19.1407 94.7018 19.4844C94.1575 19.8281 93.4916 20 92.7039 20ZM92.5321 17.7014C92.9188 17.7014 93.2195 17.5582 93.4343 17.2718C93.6634 16.9853 93.7781 16.5915 93.7781 16.0902V11.6219C93.1765 12.0802 92.7039 12.5314 92.3602 12.9753C92.0165 13.4192 91.7659 13.8418 91.6083 14.2428C91.4652 14.6437 91.372 15.0018 91.3291 15.3169C91.3004 15.6319 91.2861 15.8826 91.2861 16.0687C91.2861 16.4125 91.3434 16.706 91.458 16.9495C91.5726 17.193 91.7229 17.3792 91.9091 17.5081C92.1096 17.6369 92.3173 17.7014 92.5321 17.7014ZM88.6653 12.9538C88.8944 12.9538 89.1021 12.9466 89.2883 12.9323C89.4744 12.9037 89.6749 12.8679 89.8898 12.8249C90.1189 12.3953 90.4053 11.9584 90.749 11.5145C91.0928 11.0706 91.5152 10.6409 92.0165 10.2256C92.5178 9.79592 93.1049 9.38776 93.7781 9.00107V7.43287C93.7781 6.70247 93.6492 6.0222 93.3914 5.39205C93.1479 4.7619 92.7899 4.21769 92.3173 3.7594C91.8589 3.28679 91.3219 2.92159 90.7061 2.6638C90.0903 2.3917 89.4099 2.25564 88.6653 2.25564C87.9349 2.25564 87.2546 2.3917 86.6244 2.6638C86.0087 2.93591 85.4716 3.31543 85.0133 3.80236C84.555 4.27497 84.197 4.84068 83.9392 5.49946C83.6814 6.14393 83.5525 6.84568 83.5525 7.60473C83.5525 8.36377 83.6814 9.07269 83.9392 9.73147C84.197 10.3759 84.555 10.9417 85.0133 11.4286C85.4716 11.9012 86.0087 12.2736 86.6244 12.5457C87.2546 12.8177 87.9349 12.9538 88.6653 12.9538Z" fill="white"/>
<path d="M102.878 15.2954C102.048 15.2954 101.303 15.1021 100.644 14.7154C99.9856 14.3144 99.4629 13.7845 99.0762 13.1257C98.7038 12.4525 98.5176 11.7151 98.5176 10.913C98.5176 10.2829 98.6609 9.68853 98.9472 9.12999C99.248 8.55714 99.6633 8.07736 100.193 7.69068C99.6633 7.304 99.2552 6.83855 98.9687 6.29433C98.6823 5.73579 98.5392 5.15577 98.5392 4.55427C98.5392 3.75226 98.7253 3.02903 99.0976 2.38456C99.4843 1.74009 99.9999 1.22452 100.644 0.837834C101.289 0.451153 102.005 0.257812 102.793 0.257812H108.851V2.53493H103.072C102.714 2.53493 102.384 2.62803 102.084 2.8142C101.783 2.98606 101.539 3.22237 101.353 3.52312C101.181 3.82387 101.095 4.16759 101.095 4.55427C101.095 4.89798 101.189 5.22022 101.375 5.52097C101.561 5.82172 101.804 6.06519 102.105 6.25137C102.406 6.42323 102.742 6.50916 103.115 6.50916H108.099V8.78628H103.244C102.814 8.78628 102.435 8.88652 102.105 9.08703C101.776 9.28753 101.518 9.55247 101.332 9.88187C101.16 10.1969 101.074 10.5478 101.074 10.9345C101.074 11.3069 101.16 11.6577 101.332 11.9871C101.518 12.3022 101.769 12.56 102.084 12.7605C102.413 12.9466 102.785 13.0398 103.201 13.0398H108.851V15.2954H102.878Z" fill="white"/>
</svg>
